<svg width="100" height="100" viewBox="0 0 100 100" fill="none" xmlns="http://www.w3.org/2000/svg">
<g clip-path="url(#clip0_47_123)">
<path d="M75 0.5H25C11.469 0.5 0.5 11.469 0.5 25V75C0.5 88.531 11.469 99.5 25 99.5H75C88.531 99.5 99.5 88.531 99.5 75V25C99.5 11.469 88.531 0.5 75 0.5Z" stroke="#2B343D" stroke-width="2"/>
<path d="M57.9825 42.5V58H41.9826V42.5H57.9825ZM83.919 44.375C84.269 44.4136 84.5725 44.6333 84.719 44.9531L86.8355 49.584C86.9375 49.8062 86.9485 50.0385 86.8935 50.2495C86.9485 50.4605 86.9375 50.693 86.8355 50.9155L84.719 55.5465C84.5725 55.8665 84.269 56.086 83.919 56.1245L68.4825 57.83V42.6689L83.919 44.375ZM31.4826 57.8195L17.8996 56.1145C17.6333 56.081 17.3914 55.942 17.2287 55.7285L13.7067 51.106C13.5048 50.841 13.4599 50.528 13.5329 50.25C13.4597 49.9717 13.5046 49.6589 13.7067 49.3936L17.2287 44.771C17.3914 44.5576 17.6334 44.4182 17.8996 44.3848L31.4826 42.6792V57.8195Z" fill="#F1E19A"/>
</g>
<defs>
<clipPath id="clip0_47_123">
<rect width="100" height="100" fill="white"/>
</clipPath>
</defs>
</svg>
