<svg width="80" height="80" viewBox="0 0 80 80" fill="none" xmlns="http://www.w3.org/2000/svg">
<path d="M55.5652 23.5873L56.9617 18.1379C56.9617 18.1379 60.9247 15.0273 63.8278 15.4111C67.0447 15.8363 69.7309 20.6536 69.7309 20.6536C69.7309 20.6536 69.6124 25.5469 67.1648 27.057C65.3297 28.1892 61.5187 27.8309 61.5187 27.8309L38.8564 57.6004C38.6649 57.852 38.3669 58 38.0521 58L29.9793 58C29.1425 58 28.6853 57.0347 29.2118 56.3795L55.5652 23.5873Z" fill="#F1E19A"/>
<path d="M43.8796 11.0039C45.7026 11.0838 47.2507 12.3932 47.6208 14.1953L49.9148 25.3662L43.3943 33.3779L40.4411 19H29.0456L18.8015 62H49.2732L47.2868 52.3301L53.8074 44.3184L57.8493 63.9941C58.4663 66.9984 56.2625 69.818 53.2458 69.9912L52.9519 70H15.0017L14.7019 69.9912C11.6264 69.8112 9.41325 66.8846 10.1384 63.8408L21.9958 14.0732C22.3982 12.3844 23.8384 11.1611 25.5427 11.0146L25.8865 11H43.7029L43.8796 11.0039Z" fill="#F1E19A"/>
</svg>
