<svg width="100" height="100" viewBox="0 0 100 100" fill="none" xmlns="http://www.w3.org/2000/svg">
<g clip-path="url(#clip0_47_107)">
<path d="M25 0.5H75C88.531 0.5 99.5 11.469 99.5 25V75C99.5 88.531 88.531 99.5 75 99.5H25C11.469 99.5 0.5 88.531 0.5 75V25C0.5 11.469 11.469 0.5 25 0.5Z" stroke="#2B343D" stroke-width="2"/>
<path d="M56.0285 83.94C55.989 84.2915 55.7665 84.596 55.4435 84.7405L50.677 86.876C50.444 86.9805 50.2005 86.9865 49.9826 86.9205C49.7647 86.9865 49.5209 86.9805 49.2878 86.876L44.5212 84.7405C44.1987 84.5955 43.9759 84.2915 43.9363 83.94L42.2527 69.007H57.712L56.0285 83.94Z" fill="#F1E19A"/>
<path d="M57.9825 58.507H41.9827V43.007H57.9825V58.507Z" fill="#F1E19A"/>
<path d="M83.9185 44.8824C84.2685 44.9211 84.572 45.1406 84.7185 45.4605L86.835 50.0915C86.937 50.314 86.948 50.546 86.893 50.757C86.948 50.968 86.937 51.2005 86.835 51.423L84.7185 56.054C84.572 56.3735 84.2685 56.5935 83.9185 56.632L68.4825 58.337V43.1764L83.9185 44.8824Z" fill="#F1E19A"/>
<path d="M31.4827 58.327L17.8992 56.6215C17.633 56.588 17.3909 56.4495 17.2283 56.236L13.7063 51.6135C13.5043 51.348 13.4594 51.0355 13.5325 50.757C13.4594 50.4785 13.5044 50.166 13.7063 49.901L17.2283 45.2785C17.3909 45.0651 17.633 44.9258 17.8992 44.8922L31.4827 43.1862V58.327Z" fill="#F1E19A"/>
<path d="M49.9822 13.5436C50.2665 13.4575 50.591 13.4947 50.8665 13.7003L55.625 17.2535C55.842 17.4156 55.984 17.6591 56.0185 17.9278L57.886 32.5069H42.0784L43.9465 17.9278C43.9809 17.6592 44.1231 17.4156 44.3401 17.2535L49.0984 13.7003C49.3737 13.4947 49.6981 13.4578 49.9822 13.5436Z" fill="#F1E19A"/>
</g>
<defs>
<clipPath id="clip0_47_107">
<rect width="100" height="100" fill="white"/>
</clipPath>
</defs>
</svg>
