<svg width="80" height="80" viewBox="0 0 80 80" fill="none" xmlns="http://www.w3.org/2000/svg">
<path d="M34.4577 28.8991C42.7954 26.1199 47.7979 32.234 46.6862 41.1276L68.3649 60.0261C68.3757 60.0402 72.2041 65.067 67.8083 68.364C63.3688 71.6935 59.4831 67.821 59.4704 67.8083L40.5719 46.6862C31.1226 47.7979 26.6759 42.2395 28.8991 34.4577C28.8991 34.4577 29.5051 33.6942 30.0104 33.3454C32.8009 31.4193 32.2716 40.9669 35.569 40.0163C36.9045 39.6311 37.7926 38.3483 37.7926 38.3483C37.802 38.3438 39.6216 37.4537 40.0163 36.1247C40.9807 32.8745 31.3147 32.902 33.3454 30.0104C33.6966 29.5104 34.4506 28.9048 34.4577 28.8991ZM63.362 60.0261C61.52 60.0261 60.027 61.5201 60.027 63.362C60.0272 65.2038 61.5202 66.697 63.362 66.697C65.2037 66.6969 66.6967 65.2037 66.6969 63.362C66.6969 61.5201 65.2038 60.0262 63.362 60.0261Z" fill="#F1E19A"/>
<path d="M41.2393 10C41.7915 10 42.2393 10.4477 42.2393 11V14.8711C45.1942 15.441 47.9501 16.5681 50.3945 18.1387L53.3799 15.1543C53.7704 14.7638 54.4034 14.7638 54.7939 15.1543L60.4541 20.8145C60.8446 21.205 60.8446 21.838 60.4541 22.2285L57.4639 25.2188C58.8269 27.3467 59.8541 29.7097 60.4707 32.2344H64.585C65.1372 32.2344 65.585 32.6821 65.585 33.2344V41.2393C65.585 41.7915 65.1372 42.2393 64.585 42.2393H60.7129C60.2754 44.5041 59.5122 46.653 58.4717 48.6338L52.9248 43.9805C53.7061 42.0718 54.1386 39.9828 54.1387 37.793C54.1387 28.7656 46.8203 21.4475 37.793 21.4473C28.7655 21.4473 21.4473 28.7655 21.4473 37.793C21.4475 46.8202 28.7656 54.1387 37.793 54.1387C39.9858 54.1386 42.0775 53.7051 43.9883 52.9219L48.9873 58.2822C46.9095 59.4199 44.6397 60.2503 42.2393 60.7139V64.585C42.2393 65.1372 41.7915 65.585 41.2393 65.585H33.2344C32.6821 65.585 32.2344 65.1372 32.2344 64.585V60.4707C29.7097 59.8541 27.3467 58.8268 25.2188 57.4639L22.2285 60.4541C21.838 60.8446 21.205 60.8446 20.8145 60.4541L15.1543 54.7939C14.7638 54.4034 14.7638 53.7704 15.1543 53.3799L18.1387 50.3945C16.5681 47.9501 15.441 45.1942 14.8711 42.2393H11C10.4477 42.2392 10 41.7915 10 41.2393V33.2344C10 32.6821 10.4477 32.2344 11 32.2344H15.1143C15.7323 29.7041 16.7604 27.3348 18.1279 25.2031L15.1543 22.2285C14.7638 21.838 14.7638 21.205 15.1543 20.8145L20.8145 15.1543C21.205 14.7638 21.838 14.7638 22.2285 15.1543L25.2031 18.1279C27.3348 16.7604 29.7041 15.7323 32.2344 15.1143V11C32.2344 10.4477 32.6821 10 33.2344 10H41.2393ZM57.2979 50.624C55.677 53.083 53.6036 55.2171 51.1963 56.9082L46.3555 51.7178C48.6259 50.3187 50.5273 48.3797 51.8828 46.0801L57.2979 50.624Z" fill="#F1E19A"/>
</svg>
