<svg width="200" height="200" viewBox="0 0 200 200" fill="none" xmlns="http://www.w3.org/2000/svg">
<rect x="1" y="1" width="198" height="198" rx="49" fill="#1B232B" stroke="#2B343D" stroke-width="2"/>
<path d="M110.5 28.333C110.5 27.2008 111.707 26.4769 112.706 27.0098L127.658 34.9844C128.013 35.1736 128.275 35.4962 128.39 35.877L128.429 36.043L139.448 97.4834C139.478 97.6482 139.479 97.8171 139.453 97.9824L128.448 167.705C128.371 168.195 128.058 168.61 127.619 168.821L127.424 168.899L112.457 173.688C111.489 173.998 110.5 173.276 110.5 172.26V28.333Z" fill="#F1E19A" stroke="#1B232B"/>
<path d="M88.5 28.333C88.4998 27.2008 87.293 26.4769 86.2939 27.0098L71.3418 34.9844C70.987 35.1736 70.7246 35.4962 70.6104 35.877L70.5713 36.043L59.5518 97.4834C59.5222 97.6482 59.5208 97.8171 59.5469 97.9824L70.5518 167.705C70.6292 168.195 70.9423 168.61 71.3809 168.821L71.5762 168.899L86.543 173.688C87.5109 173.998 88.5 173.276 88.5 172.26V28.333Z" fill="#F1E19A" stroke="#1B232B"/>
</svg>
